<?xml version="1.0" encoding="UTF-8" standalone="no"?>
<!-- Created with Inkscape (http://www.inkscape.org/) -->

<svg
   xmlns:dc="http://purl.org/dc/elements/1.1/"
   xmlns:cc="http://creativecommons.org/ns#"
   xmlns:rdf="http://www.w3.org/1999/02/22-rdf-syntax-ns#"
   xmlns:svg="http://www.w3.org/2000/svg"
   xmlns="http://www.w3.org/2000/svg"
   xmlns:xlink="http://www.w3.org/1999/xlink"
   xmlns:sodipodi="http://sodipodi.sourceforge.net/DTD/sodipodi-0.dtd"
   xmlns:inkscape="http://www.inkscape.org/namespaces/inkscape"
   width="512"
   height="512"
   viewBox="0 0 511.99999 511.99999"
   id="svg3344"
   version="1.1"
   inkscape:version="0.91 r13725"
   sodipodi:docname="moondeploy.svg">
  <defs
     id="defs3346">
    <linearGradient
       inkscape:collect="always"
       id="linearGradient4207">
      <stop
         style="stop-color:#ff3a36;stop-opacity:1;"
         offset="0"
         id="stop4209" />
      <stop
         style="stop-color:#ff8236;stop-opacity:0.7019608"
         offset="1"
         id="stop4211" />
    </linearGradient>
    <radialGradient
       inkscape:collect="always"
       xlink:href="#linearGradient4207"
       id="radialGradient4213"
       cx="263.63516"
       cy="817.70868"
       fx="263.63516"
       fy="817.70868"
       r="234.63661"
       gradientTransform="matrix(1.0251294,-0.01998749,0.04414233,2.1887558,-46.47332,-991.96857)"
       gradientUnits="userSpaceOnUse" />
  </defs>
  <sodipodi:namedview
     id="base"
     pagecolor="#ffffff"
     bordercolor="#666666"
     borderopacity="1.0"
     inkscape:pageopacity="0.0"
     inkscape:pageshadow="2"
     inkscape:zoom="0.7"
     inkscape:cx="146.18347"
     inkscape:cy="216.48674"
     inkscape:document-units="px"
     inkscape:current-layer="layer1"
     showgrid="false"
     units="px"
     inkscape:window-width="1366"
     inkscape:window-height="719"
     inkscape:window-x="0"
     inkscape:window-y="25"
     inkscape:window-maximized="1" />
  <metadata
     id="metadata3349">
    <rdf:RDF>
      <cc:Work
         rdf:about="">
        <dc:format>image/svg+xml</dc:format>
        <dc:type
           rdf:resource="http://purl.org/dc/dcmitype/StillImage" />
        <dc:title />
      </cc:Work>
    </rdf:RDF>
  </metadata>
  <g
     inkscape:label="Layer 1"
     inkscape:groupmode="layer"
     id="layer1"
     transform="translate(0,-540.36219)">
    <path
       style="opacity:1;fill:url(#radialGradient4213);fill-opacity:1;fill-rule:evenodd;stroke:#000000;stroke-width:4.09935045;stroke-miterlimit:4;stroke-dasharray:none;stroke-opacity:1"
       d="m 89.221353,626.38962 c 73.063017,61.68533 109.632287,-11.13308 176.794877,82.96322 72.03575,-95.87031 122.49528,-41.47134 188.79479,-80.81792 19.55009,-4.79509 26.61926,14.26484 17.5771,21.7813 -75.16831,95.51867 -96.78007,149.60537 -77.04737,208.34323 3.2625,9.71139 5.56352,16.48088 11.66793,28.85052 l 11.5131,22.66887 c 3.51403,5.38612 10.26116,9.78891 16.22321,9.51009 7.95189,-0.37189 31.35576,-12.16539 15.68322,-26.46044 -19.4714,-17.76001 24.55018,-14.91274 29.49429,-7.94364 8.84869,12.47287 5.28041,28.67234 5.28041,28.67234 -2.22204,23.7527 -25.10287,56.16973 -68.4524,49.27832 -10.53443,-1.67464 -26.06881,-10.46266 -33.96794,-18.98411 -45.194,-48.75455 -54.01136,-97.32416 -83.52828,-102.20173 -9.09786,-1.50339 -9.21317,14.3087 -34.33263,17.39332 -15.54518,1.90893 -20.13977,-17.33149 -29.45706,-19.45474 -28.94671,-6.59648 -45.89373,140.69203 -153.97111,128.1754 -48.705626,-2.84514 -52.604925,-25.58135 -52.604925,-25.58135 0,0 -12.88325,-24.08161 16.352431,-48.78988 20.62663,-5.1953 19.839289,15.32518 19.839289,15.32518 -10.965133,16.17727 2.607184,20.40398 2.727569,20.41002 0,0 19.540396,6.72115 36.482426,-9.10108 52.48882,-42.22397 84.20887,-109.37601 -40.147528,-275.347 -10.102197,-23.89176 18.853377,-23.4269 25.078601,-18.68995 z"
       id="rect4156"
       inkscape:connector-curvature="0"
       sodipodi:nodetypes="ccccsccssscssssscccsscccc" />
  </g>
</svg>
